<?xml version="1.0" ?><svg style="enable-background:new 0 0 64 64;" version="1.1" viewBox="0 0 64 64" xml:space="preserve" xmlns="http://www.w3.org/2000/svg" xmlns:xlink="http://www.w3.org/1999/xlink"><style type="text/css">
	.st0{fill:#FFEEA9;}
	.st1{fill:#D32436;}
	.st2{fill:#8DD1D3;}
	.st3{fill:#330D00;}
	.st4{fill:none;stroke:#330D00;stroke-linecap:round;stroke-linejoin:round;stroke-miterlimit:10;}
</style><g id="_x34_0-Id_Card"/><g id="_x33_9-Formula"/><g id="_x33_8-Elbow"/><g id="_x33_7-Diploma"/><g id="_x33_6-Laptop"/><g id="_x33_5-Brush"/><g id="_x33_4-Baseball"/><g id="_x33_3-Student"/><g id="_x33_2-Highlighter"/><g id="_x33_1-Ruler"/><g id="_x33_0-Caliper"/><g id="_x32_9-Ruler_Elbow"/><g id="_x32_8-Abacus"/><g id="_x32_7-Id_Card"/><g id="_x32_6-Eraser"/><g id="_x32_5-Pencil"/><g id="_x32_4-Ink"/><g id="_x32_3-Graduation_Cap"/><g id="_x32_2-_Sling_Bag"/><g id="_x32_1-Rugby_Ball"/><g id="_x32_0-Clock"/><g id="_x31_9-Certificate"/><g id="_x31_8-Idea"/><g id="_x31_7-Bookshelf"/><g id="_x31_6-Formula"/><g id="_x31_5-Bell"/><g id="_x31_4-Magnifying_Glass"/><g id="_x31_3-Calculator"/><g id="_x31_2-Eyeglasses"/><g id="_x31_1-Bus"><g><g><rect class="st1" height="17.7" width="44.1" x="9.9" y="36.4"/></g><g><rect class="st2" height="26.5" width="44.1" x="9.9" y="9.9"/></g><g><rect class="st1" height="8.8" width="44.1" x="9.9" y="1.1"/></g><g><path class="st2" d="M19,62.9h-4.8c-1.1,0-2-0.9-2-2v-6.8H21v6.8C21,62,20.1,62.9,19,62.9z"/></g><g><path class="st2" d="M49.9,62.9H45c-1.1,0-2-0.9-2-2v-6.8h8.8v6.8C51.9,62,51,62.9,49.9,62.9z"/></g><g><circle class="st0" cx="18.8" cy="45.2" r="2.2"/></g><g><circle class="st0" cx="45.2" cy="45.2" r="2.2"/></g><g><rect class="st0" height="11" width="4.4" x="5.5" y="16.6"/></g><g><rect class="st0" height="11" width="4.4" x="54.1" y="16.6"/></g><g><rect class="st2" height="4.4" width="11" x="26.5" y="43"/></g><g><g><path class="st3" d="M18.8,48.6c1.8,0,3.3-1.5,3.3-3.3s-1.5-3.3-3.3-3.3c-1.8,0-3.3,1.5-3.3,3.3S16.9,48.6,18.8,48.6z       M18.8,44.1c0.6,0,1.1,0.5,1.1,1.1s-0.5,1.1-1.1,1.1c-0.6,0-1.1-0.5-1.1-1.1S18.1,44.1,18.8,44.1z"/></g><g><path class="st3" d="M45.2,48.6c1.8,0,3.3-1.5,3.3-3.3s-1.5-3.3-3.3-3.3s-3.3,1.5-3.3,3.3S43.4,48.6,45.2,48.6z M45.2,44.1      c0.6,0,1.1,0.5,1.1,1.1s-0.5,1.1-1.1,1.1s-1.1-0.5-1.1-1.1S44.6,44.1,45.2,44.1z"/></g><g><path class="st3" d="M58.5,15.4h-3.3V9.9V1.1c0-0.6-0.5-1.1-1.1-1.1H9.9C9.3,0,8.8,0.5,8.8,1.1v8.8v5.5H5.5      c-0.6,0-1.1,0.5-1.1,1.1v11c0,0.6,0.5,1.1,1.1,1.1h3.3v7.7v17.7c0,0.6,0.5,1.1,1.1,1.1H11v3.3c0,3,2.5,5.5,5.5,5.5      s5.5-2.5,5.5-5.5v-3.3h19.9v3.3c0,3,2.5,5.5,5.5,5.5s5.5-2.5,5.5-5.5v-3.3h1.1c0.6,0,1.1-0.5,1.1-1.1V36.4v-7.7h3.3      c0.6,0,1.1-0.5,1.1-1.1v-11C59.6,15.9,59.1,15.4,58.5,15.4z M11,27.6v-11V11H53v5.5v11v7.7H11V27.6z M11,2.2H53v6.6H11V2.2z       M6.6,26.5v-8.8h2.2v8.8H6.6z M19.9,58.5c0,1.8-1.5,3.3-3.3,3.3c-1.8,0-3.3-1.5-3.3-3.3v-3.3h6.6V58.5z M50.8,58.5      c0,1.8-1.5,3.3-3.3,3.3s-3.3-1.5-3.3-3.3v-3.3h6.6V58.5z M53,53h-1.1H43H21h-8.8H11V37.5H53V53z M57.4,26.5h-2.2v-8.8h2.2V26.5z      "/></g><g><path class="st3" d="M26.5,48.6h11c0.6,0,1.1-0.5,1.1-1.1V43c0-0.6-0.5-1.1-1.1-1.1h-11c-0.6,0-1.1,0.5-1.1,1.1v4.4      C25.4,48.1,25.9,48.6,26.5,48.6z M27.6,44.1h8.8v2.2h-8.8V44.1z"/></g></g></g></g><g id="_x31_0-Trophy"/><g id="_x39_-Globe"/><g id="_x38_-Basket_Ball"/><g id="_x37_-Pen"/><g id="_x36_-Board"/><g id="_x35_-Bag"/><g id="_x34_-Exam"/><g id="_x33_-Book"/><g id="_x32_-Ruler"/><g id="_x31_-Building"/></svg>