<?xml version="1.0" ?><svg style="enable-background:new 0 0 64 64;" version="1.1" viewBox="0 0 64 64" xml:space="preserve" xmlns="http://www.w3.org/2000/svg" xmlns:xlink="http://www.w3.org/1999/xlink"><style type="text/css">
	.st0{fill:#FFEEA9;}
	.st1{fill:#D32436;}
	.st2{fill:#8DD1D3;}
	.st3{fill:#330D00;}
	.st4{fill:none;stroke:#330D00;stroke-linecap:round;stroke-linejoin:round;stroke-miterlimit:10;}
</style><g id="_x34_0-Id_Card"/><g id="_x33_9-Formula"/><g id="_x33_8-Elbow"/><g id="_x33_7-Diploma"/><g id="_x33_6-Laptop"/><g id="_x33_5-Brush"/><g id="_x33_4-Baseball"/><g id="_x33_3-Student"/><g id="_x33_2-Highlighter"/><g id="_x33_1-Ruler"/><g id="_x33_0-Caliper"/><g id="_x32_9-Ruler_Elbow"/><g id="_x32_8-Abacus"/><g id="_x32_7-Id_Card"/><g id="_x32_6-Eraser"/><g id="_x32_5-Pencil"/><g id="_x32_4-Ink"/><g id="_x32_3-Graduation_Cap"/><g id="_x32_2-_Sling_Bag"/><g id="_x32_1-Rugby_Ball"/><g id="_x32_0-Clock"><g><g><path class="st2" d="M54.9,30.9c0,7.8-3.9,14.7-9.9,18.9c-1.7,1.2-3.6,2.2-5.7,2.9c-2.3,0.8-4.8,1.2-7.4,1.2s-5-0.4-7.4-1.2     c-2-0.7-3.9-1.7-5.7-2.9c-6-4.1-9.9-11-9.9-18.9C9.1,20.7,15.8,12,25.1,9C27.3,8.4,29.6,8,32,8s4.7,0.4,6.9,1.1     C48.2,12,54.9,20.7,54.9,30.9z"/></g><g><path class="st1" d="M38.9,8V9C36.7,8.4,34.4,8,32,8S27.3,8.4,25.1,9V8c0-3.8,3.1-6.9,6.9-6.9c1.9,0,3.6,0.8,4.9,2     C38.1,4.4,38.9,6.1,38.9,8z"/></g><g><path class="st0" d="M46.6,62.7c-1.8,0.7-3.8-0.2-4.4-2l-2.6-7.1c-0.1-0.3-0.2-0.6-0.2-0.9c2-0.7,3.9-1.7,5.7-2.9     c0.4,0.3,0.8,0.8,1,1.4l2.6,7.1C49.3,60,48.4,62,46.6,62.7z"/></g><g><path class="st0" d="M24.6,52.6c0,0.3-0.1,0.6-0.2,0.9l-2.6,7.1c-0.7,1.8-2.6,2.7-4.4,2c-1.8-0.6-2.7-2.6-2-4.4l2.6-7.1     c0.2-0.6,0.6-1,1-1.4C20.7,51,22.6,52,24.6,52.6z"/></g><g><g><path class="st3" d="M25.1,38.9c0.3,0,0.6-0.1,0.8-0.3l4.6-4.6c0,0,0,0,0,0c0.5,0.2,1,0.4,1.5,0.4c1.9,0,3.4-1.5,3.4-3.4      c0-1.5-1-2.7-2.3-3.2V17.2c0-0.6-0.5-1.1-1.1-1.1c-0.6,0-1.1,0.5-1.1,1.1v10.6c-1.3,0.5-2.3,1.7-2.3,3.2c0,0.5,0.1,1,0.4,1.5      c0,0,0,0,0,0L24.3,37c-0.4,0.4-0.4,1.1,0,1.6C24.6,38.8,24.8,38.9,25.1,38.9z M32,29.7c0.7,0,1.2,0.5,1.2,1.2      c0,0.7-0.5,1.2-1.2,1.2s-1.2-0.5-1.2-1.2C30.8,30.3,31.3,29.7,32,29.7z"/></g><g><path class="st3" d="M47.1,50.8c-0.1-0.3-0.3-0.6-0.4-0.8c5.9-4.5,9.4-11.5,9.4-19C56,20.7,49.6,11.7,40,8.3V8      c0-2.1-0.8-4.1-2.3-5.6C36.1,0.8,34.1,0,32,0c-4.4,0-8,3.6-8,8v0.3C14.4,11.7,8,20.7,8,30.9c0,7.5,3.5,14.5,9.4,19      c-0.2,0.3-0.3,0.5-0.4,0.8l-2.6,7.1c-0.4,1.1-0.4,2.4,0.1,3.5c0.5,1.1,1.4,1.9,2.5,2.4c0.5,0.2,1.1,0.3,1.6,0.3      c0.6,0,1.3-0.1,1.9-0.4c1.1-0.5,1.9-1.4,2.4-2.6l2.6-7c2.1,0.6,4.3,0.9,6.5,0.9c2.2,0,4.4-0.3,6.5-0.9l2.6,7      c0.4,1.1,1.3,2.1,2.4,2.6c0.6,0.3,1.2,0.4,1.9,0.4c0.5,0,1.1-0.1,1.6-0.3c1.1-0.4,2-1.2,2.5-2.4c0.5-1.1,0.6-2.3,0.1-3.5      L47.1,50.8z M32,2.2c1.5,0,3,0.6,4.1,1.7c1,1,1.6,2.3,1.7,3.7c0,0-0.1,0-0.1,0c-0.8-0.2-1.6-0.3-2.4-0.4c-0.2,0-0.5-0.1-0.7-0.1      C33.8,7,33,6.9,32.2,6.9c-0.1,0-0.1,0-0.2,0c-0.1,0-0.1,0-0.2,0C31,6.9,30.2,7,29.5,7c-0.2,0-0.5,0-0.7,0.1      c-0.8,0.1-1.6,0.3-2.4,0.4c0,0-0.1,0-0.1,0C26.5,4.6,29,2.2,32,2.2z M10.2,32h3.4c0.6,0,1.1-0.5,1.1-1.1c0-0.6-0.5-1.1-1.1-1.1      h-3.4c0.5-9.1,6.5-16.9,15.2-19.7c1.8-0.6,3.6-0.8,5.4-0.9v3.4c0,0.6,0.5,1.1,1.1,1.1c0.6,0,1.1-0.5,1.1-1.1V9.2      c1.8,0.1,3.7,0.4,5.4,0.9c8.8,2.8,14.8,10.6,15.2,19.7h-3.4c-0.6,0-1.1,0.5-1.1,1.1c0,0.6,0.5,1.1,1.1,1.1h3.4      c-0.3,6.7-3.8,13-9.3,16.8C42.8,50,40.9,51,39,51.6c-1.9,0.6-3.9,1-5.9,1.1v-3.4c0-0.6-0.5-1.1-1.1-1.1c-0.6,0-1.1,0.5-1.1,1.1      v3.4c-2-0.1-4-0.5-5.9-1.1c-1.9-0.6-3.7-1.6-5.4-2.7C14,45,10.6,38.8,10.2,32z M20.8,60.3c-0.2,0.6-0.6,1-1.2,1.3      c-0.6,0.3-1.2,0.3-1.8,0.1c-0.6-0.2-1-0.6-1.3-1.2c-0.3-0.6-0.3-1.2-0.1-1.8l2.6-7.1c0-0.1,0.1-0.2,0.1-0.3      c1.3,0.8,2.7,1.5,4.2,2.1L20.8,60.3z M47.5,60.4c-0.3,0.6-0.7,1-1.3,1.2c0,0,0,0,0,0c-0.6,0.2-1.2,0.2-1.8-0.1      c-0.6-0.3-1-0.7-1.2-1.3l-2.6-6.9c1.5-0.6,2.9-1.3,4.2-2.1c0.1,0.1,0.1,0.2,0.1,0.3l2.6,7.1C47.8,59.2,47.8,59.9,47.5,60.4z"/></g></g></g></g><g id="_x31_9-Certificate"/><g id="_x31_8-Idea"/><g id="_x31_7-Bookshelf"/><g id="_x31_6-Formula"/><g id="_x31_5-Bell"/><g id="_x31_4-Magnifying_Glass"/><g id="_x31_3-Calculator"/><g id="_x31_2-Eyeglasses"/><g id="_x31_1-Bus"/><g id="_x31_0-Trophy"/><g id="_x39_-Globe"/><g id="_x38_-Basket_Ball"/><g id="_x37_-Pen"/><g id="_x36_-Board"/><g id="_x35_-Bag"/><g id="_x34_-Exam"/><g id="_x33_-Book"/><g id="_x32_-Ruler"/><g id="_x31_-Building"/></svg>