<?xml version="1.0" ?><svg style="enable-background:new 0 0 64 64;" version="1.1" viewBox="0 0 64 64" xml:space="preserve" xmlns="http://www.w3.org/2000/svg" xmlns:xlink="http://www.w3.org/1999/xlink"><style type="text/css">
	.st0{fill:#FFEEA9;}
	.st1{fill:#D32436;}
	.st2{fill:#8DD1D3;}
	.st3{fill:#330D00;}
	.st4{fill:none;stroke:#330D00;stroke-linecap:round;stroke-linejoin:round;stroke-miterlimit:10;}
</style><g id="_x34_0-Id_Card"/><g id="_x33_9-Formula"/><g id="_x33_8-Elbow"/><g id="_x33_7-Diploma"/><g id="_x33_6-Laptop"/><g id="_x33_5-Brush"/><g id="_x33_4-Baseball"/><g id="_x33_3-Student"/><g id="_x33_2-Highlighter"/><g id="_x33_1-Ruler"/><g id="_x33_0-Caliper"/><g id="_x32_9-Ruler_Elbow"/><g id="_x32_8-Abacus"/><g id="_x32_7-Id_Card"/><g id="_x32_6-Eraser"/><g id="_x32_5-Pencil"/><g id="_x32_4-Ink"/><g id="_x32_3-Graduation_Cap"/><g id="_x32_2-_Sling_Bag"/><g id="_x32_1-Rugby_Ball"/><g id="_x32_0-Clock"/><g id="_x31_9-Certificate"/><g id="_x31_8-Idea"><g><g><path class="st1" d="M47.9,27.6c0,2.6-0.6,5.1-1.8,7.3l-8.8,19.2H26.7l-8.8-19.2c-1.1-2.2-1.8-4.6-1.8-7.3     c0-8.8,7.1-15.9,15.9-15.9S47.9,18.8,47.9,27.6z"/></g><g><g><path class="st3" d="M49,27.6c0-9.4-7.6-17-17-17s-17,7.6-17,17c0,2.7,0.7,5.4,1.9,7.7l8.8,19.2c0.2,0.4,0.6,0.6,1,0.6h10.6      c0.4,0,0.8-0.3,1-0.6l8.8-19.2C48.3,33,49,30.3,49,27.6z M45.1,34.4L36.6,53h-9.2l-8.6-18.6c-1.1-2.1-1.6-4.4-1.6-6.7      c0-8.2,6.6-14.8,14.8-14.8s14.8,6.6,14.8,14.8C46.8,29.9,46.2,32.3,45.1,34.4z"/></g><g><path class="st3" d="M36.4,57.4h-8.8c-0.6,0-1.1,0.5-1.1,1.1c0,0.6,0.5,1.1,1.1,1.1h8.8c0.6,0,1.1-0.5,1.1-1.1      C37.5,57.9,37,57.4,36.4,57.4z"/></g><g><path class="st3" d="M32,8.8c0.6,0,1.1-0.5,1.1-1.1V1.1C33.1,0.5,32.6,0,32,0s-1.1,0.5-1.1,1.1v6.6C30.9,8.3,31.4,8.8,32,8.8z"/></g><g><path class="st3" d="M13.2,32c0-0.6-0.5-1.1-1.1-1.1H5.5c-0.6,0-1.1,0.5-1.1,1.1s0.5,1.1,1.1,1.1h6.6      C12.7,33.1,13.2,32.6,13.2,32z"/></g><g><path class="st3" d="M14.1,15.6c0.2,0.2,0.5,0.3,0.8,0.3s0.6-0.1,0.8-0.3c0.4-0.4,0.4-1.1,0-1.6l-4.7-4.7      c-0.4-0.4-1.1-0.4-1.6,0c-0.4,0.4-0.4,1.1,0,1.6L14.1,15.6z"/></g><g><path class="st3" d="M49.2,15.9c0.3,0,0.6-0.1,0.8-0.3l4.7-4.7c0.4-0.4,0.4-1.1,0-1.6c-0.4-0.4-1.1-0.4-1.6,0l-4.7,4.7      c-0.4,0.4-0.4,1.1,0,1.6C48.6,15.8,48.9,15.9,49.2,15.9z"/></g><g><path class="st3" d="M58.5,30.9h-6.6c-0.6,0-1.1,0.5-1.1,1.1s0.5,1.1,1.1,1.1h6.6c0.6,0,1.1-0.5,1.1-1.1S59.1,30.9,58.5,30.9z"/></g><g><path class="st3" d="M36.4,61.8h-8.8c-0.6,0-1.1,0.5-1.1,1.1c0,0.6,0.5,1.1,1.1,1.1h8.8c0.6,0,1.1-0.5,1.1-1.1      C37.5,62.3,37,61.8,36.4,61.8z"/></g><g><path class="st3" d="M46.8,45.3c-0.4-0.4-1.1-0.4-1.6,0s-0.4,1.1,0,1.6l4.7,4.7c0.2,0.2,0.5,0.3,0.8,0.3c0.3,0,0.6-0.1,0.8-0.3      c0.4-0.4,0.4-1.1,0-1.6L46.8,45.3z"/></g><g><path class="st3" d="M17.2,45.3l-4.7,4.7c-0.4,0.4-0.4,1.1,0,1.6c0.2,0.2,0.5,0.3,0.8,0.3c0.3,0,0.6-0.1,0.8-0.3l4.7-4.7      c0.4-0.4,0.4-1.1,0-1.6C18.3,44.8,17.6,44.8,17.2,45.3z"/></g></g></g></g><g id="_x31_7-Bookshelf"/><g id="_x31_6-Formula"/><g id="_x31_5-Bell"/><g id="_x31_4-Magnifying_Glass"/><g id="_x31_3-Calculator"/><g id="_x31_2-Eyeglasses"/><g id="_x31_1-Bus"/><g id="_x31_0-Trophy"/><g id="_x39_-Globe"/><g id="_x38_-Basket_Ball"/><g id="_x37_-Pen"/><g id="_x36_-Board"/><g id="_x35_-Bag"/><g id="_x34_-Exam"/><g id="_x33_-Book"/><g id="_x32_-Ruler"/><g id="_x31_-Building"/></svg>