<svg xmlns="http://www.w3.org/2000/svg" width="64" height="54" viewBox="0 0 612 792" style="enable-background:new 0 0 64 64;version:1.1"><line x1="229.594" y1="341.894" x2="107.972" y2="463.517" style="fill:none;stroke-miterlimit:10;stroke-width:20;stroke:#330D00"/><line x1="398.689" y1="358.017" x2="520.313" y2="479.64" style="fill:none;stroke-miterlimit:10;stroke-width:20;stroke:#330D00"/><line x1="308.598" y1="387.613" x2="308.598" y2="559.613" style="fill:none;stroke-miterlimit:10;stroke-width:20;stroke:#330D00"/><path d="M308.598 438.355c-82.134 0-148.955-66.818-148.955-148.948 0-82.135 66.821-148.957 148.955-148.957 82.134 0 148.955 66.822 148.955 148.957C457.553 371.538 390.731 438.355 308.598 438.355z" fill="#D32436"/><path d="M308.598 151.201c36.918 0 71.624 14.376 97.728 40.479 26.103 26.104 40.478 60.811 40.478 97.728 0 36.914-14.375 71.619-40.478 97.72 -26.104 26.103-60.811 40.478-97.728 40.478 -36.916 0-71.622-14.375-97.726-40.478 -26.104-26.102-40.479-60.807-40.479-97.72 0-36.917 14.376-71.624 40.479-97.727C236.975 165.577 271.682 151.201 308.598 151.201M308.598 129.701c-88.203 0-159.705 71.502-159.705 159.707 0 88.198 71.503 159.698 159.705 159.698 88.207 0 159.705-71.5 159.705-159.698C468.303 201.203 396.805 129.701 308.598 129.701L308.598 129.701z" fill="#330D00"/><path d="M84.892 559.738c-40.331 0-73.142-32.809-73.142-73.137 0-40.333 32.812-73.146 73.142-73.146 40.33 0 73.141 32.813 73.141 73.146C158.033 526.93 125.222 559.738 84.892 559.738z" fill="#FFEEA9"/><path d="M84.892 424.205c34.403 0 62.391 27.991 62.391 62.396 0 34.4-27.988 62.387-62.391 62.387 -34.403 0-62.392-27.986-62.392-62.387C22.5 452.196 50.489 424.205 84.892 424.205M84.892 402.705C38.562 402.705 1 440.266 1 486.602c0 46.334 37.562 83.887 83.892 83.887 46.332 0 83.891-37.553 83.891-83.887C168.783 440.266 131.224 402.705 84.892 402.705L84.892 402.705z" fill="#330D00"/><path d="M308.598 659.952c-40.331 0-73.142-32.809-73.142-73.137 0-40.335 32.811-73.149 73.142-73.149 40.33 0 73.141 32.814 73.141 73.149C381.738 627.144 348.928 659.952 308.598 659.952z" fill="#FFEEA9"/><path d="M308.598 524.416c34.402 0 62.391 27.992 62.391 62.399 0 34.4-27.988 62.387-62.391 62.387 -34.403 0-62.392-27.986-62.392-62.387C246.206 552.408 274.195 524.416 308.598 524.416M308.598 502.916c-46.329 0-83.892 37.563-83.892 83.899 0 46.331 37.563 83.887 83.892 83.887 46.334 0 83.891-37.556 83.891-83.887C392.488 540.479 354.932 502.916 308.598 502.916L308.598 502.916z" fill="#330D00"/><path d="M528.178 559.738c-40.33 0-73.141-32.809-73.141-73.137 0-40.334 32.811-73.147 73.141-73.147s73.141 32.813 73.141 73.147C601.318 526.93 568.508 559.738 528.178 559.738z" fill="#FFEEA9"/><path d="M528.178 424.204c34.402 0 62.391 27.991 62.391 62.397 0 34.4-27.988 62.387-62.391 62.387s-62.391-27.986-62.391-62.387C465.787 452.195 493.775 424.204 528.178 424.204M528.178 402.704c-46.328 0-83.891 37.562-83.891 83.897 0 46.334 37.563 83.887 83.891 83.887 46.332 0 83.891-37.553 83.891-83.887C612.068 440.266 574.51 402.704 528.178 402.704L528.178 402.704z" fill="#330D00"/><path d="M368.682 296.292c0 34.09-27.635 61.725-61.725 61.725 -34.09 0-61.725-27.635-61.725-61.725 0-5.375 27.635-4.861 61.725-4.861C341.047 291.431 368.682 290.917 368.682 296.292z" style="fill:#FFEEA9;stroke-miterlimit:10;stroke-width:21.5;stroke:#330D00"/><path d="M68.096 509.942c1.677 1.677 3.93 2.62 6.288 2.62 2.357 0 4.61-0.943 6.287-2.62l33.952-33.951c3.406-3.406 3.668-9.013 0.367-12.523 -3.458-3.72-9.274-3.772-12.783-0.21L78.104 487.36c-2.043 2.043-5.344 2.043-7.388 0l-3.091-3.144c-3.458-3.458-9.117-3.458-12.575 0 -3.458 3.458-3.458 9.116 0 12.574L68.096 509.942z" fill="#330D00"/><path d="M291.802 610.155c1.677 1.677 3.93 2.62 6.288 2.62 2.357 0 4.61-0.943 6.287-2.62l33.952-33.951c3.406-3.406 3.668-9.013 0.367-12.523 -3.459-3.72-9.275-3.772-12.783-0.21l-24.103 24.103c-2.043 2.043-5.344 2.043-7.388 0l-3.091-3.144c-3.458-3.458-9.117-3.458-12.575 0 -3.458 3.458-3.458 9.116 0 12.574L291.802 610.155z" fill="#330D00"/><circle cx="528.177" cy="486.596" r="12.983" fill="#330D00"/><path d="M245.232 254.74c0 0 0-25.068 20.885-25.068 20.899 0 20.834 25.068 20.834 25.068" style="fill:none;stroke-linecap:round;stroke-linejoin:round;stroke-miterlimit:10;stroke-width:20;stroke:#330D00"/><path d="M326.963 254.74c0 0 0-25.068 20.885-25.068 20.9 0 20.834 25.068 20.834 25.068" style="fill:none;stroke-linecap:round;stroke-linejoin:round;stroke-miterlimit:10;stroke-width:20;stroke:#330D00"/></svg>
