<svg xmlns="http://www.w3.org/2000/svg" width="640" height="640" viewBox="-14 76 640 640" class="a"><style>.a{enable-background:new -14 76 640 640;version:1.1;}.b{fill:none;stroke-miterlimit:10;stroke-width:20;stroke:#330D00;}.c{fill:#D32436;}.d{fill:#330D00;}.e{fill:#FFEEA9;}.f{fill:#FFEEA9;stroke-miterlimit:10;stroke-width:15;stroke:#330D00;}.g{fill:none;stroke-linecap:round;stroke-linejoin:round;stroke-miterlimit:10;stroke-width:15;stroke:#330D00;}</style><line x1="227" y1="344" x2="100" y2="471" class="b"/><line x1="403" y1="361" x2="530" y2="488" class="b"/><line x1="309" y1="392" x2="309" y2="572" class="b"/><path d="M309 449c-88 0-159-71-159-159 0-88 71-159 159-159 88 0 159 71 159 159C468 377 397 449 309 449z" class="c"/><path d="M309 138c41 0 79 16 107 44 29 29 44 67 44 107 0 41-16 79-44 107 -29 29-67 44-107 44 -41 0-79-16-107-44 -29-29-44-67-44-107 0-41 16-79 44-107S269 138 309 138M309 123c-92 0-167 75-167 167 0 92 75 167 167 167 92 0 167-75 167-167C476 198 401 123 309 123L309 123z" class="d"/><path d="M76 575c-44 0-80-36-80-80 0-44 36-80 80-80 44 0 80 36 80 80C156 540 120 575 76 575z" class="e"/><path d="M76 423c40 0 73 33 73 73 0 40-33 73-73 73 -40 0-73-33-73-73C3 455 36 423 76 423M76 408c-48 0-88 39-88 88s39 88 88 88c48 0 88-39 88-88S124 408 76 408L76 408z" class="d"/><path d="M309 680c-44 0-80-36-80-80 0-44 36-80 80-80 44 0 80 36 80 80C389 644 353 680 309 680z" class="e"/><path d="M309 527c40 0 73 33 73 73 0 40-33 73-73 73 -40 0-73-33-73-73C237 560 269 527 309 527M309 512c-48 0-88 39-88 88 0 48 39 88 88 88 48 0 88-39 88-88C397 552 358 512 309 512L309 512z" class="d"/><path d="M538 575c-44 0-80-36-80-80 0-44 36-80 80-80 44 0 80 36 80 80C619 540 583 575 538 575z" class="e"/><path d="M538 423c40 0 73 33 73 73 0 40-33 73-73 73 -40 0-73-33-73-73C466 455 498 423 538 423M538 408c-48 0-88 39-88 88s39 88 88 88c48 0 88-39 88-88S587 408 538 408L538 408z" class="d"/><path d="M372 297c0 36-29 64-64 64 -36 0-64-29-64-64 0-6 29-5 64-5C343 292 372 291 372 297z" class="f"/><path d="M58 520c2 2 4 3 7 3s5-1 7-3l35-35c4-4 4-9 0-13 -4-4-10-4-13 0l-25 25c-2 2-6 2-8 0l-3-3c-4-4-10-4-13 0 -4 4-4 10 0 13L58 520z" class="d"/><path d="M292 624c2 2 4 3 7 3 2 0 5-1 7-3l35-35c4-4 4-9 0-13 -4-4-10-4-13 0l-25 25c-2 2-6 2-8 0l-3-3c-4-4-10-4-13 0 -4 4-4 10 0 13L292 624z" class="d"/><circle cx="538" cy="495" r="21" class="d"/><path d="M243 253c0 0 0-26 22-26 22 0 22 26 22 26" class="g"/><path d="M329 253c0 0 0-26 22-26 22 0 22 26 22 26" class="g"/></svg>
