<?xml version="1.0" encoding="utf-8"?>
<!-- Generator: Adobe Illustrator 16.0.0, SVG Export Plug-In . SVG Version: 6.00 Build 0)  -->
<!DOCTYPE svg PUBLIC "-//W3C//DTD SVG 1.1//EN" "http://www.w3.org/Graphics/SVG/1.1/DTD/svg11.dtd">
<svg version="1.1" id="Layer_1" xmlns="http://www.w3.org/2000/svg" xmlns:xlink="http://www.w3.org/1999/xlink" x="0px" y="0px"
	 width="640px" height="640px" viewBox="-14 76 640 640" style="enable-background:new -14 76 640 640;" xml:space="preserve">
<g id="_x34_0-Id_Card">
</g>
<g id="_x33_9-Formula">
</g>
<g id="_x33_8-Elbow">
</g>
<g id="_x33_7-Diploma">
</g>
<g id="_x33_6-Laptop">
</g>
<g id="_x33_5-Brush">
</g>
<g id="_x33_4-Baseball">
</g>
<g id="_x33_3-Student">
</g>
<g id="_x33_2-Highlighter">
</g>
<g id="_x33_1-Ruler">
</g>
<g id="_x33_0-Caliper">
</g>
<g id="_x32_9-Ruler_Elbow">
</g>
<g id="_x32_8-Abacus">
</g>
<g id="_x32_7-Id_Card">
</g>
<g id="_x32_6-Eraser">
</g>
<g id="_x32_5-Pencil">
</g>
<g id="_x32_4-Ink">
</g>
<g id="_x32_3-Graduation_Cap">
</g>
<g id="_x32_2-_Sling_Bag">
</g>
<g id="_x32_1-Rugby_Ball">
</g>
<g id="_x31_9-Certificate">
</g>
<g id="_x31_8-Idea">
</g>
<g id="_x31_7-Bookshelf">
</g>
<g id="_x31_6-Formula">
</g>
<g id="_x31_5-Bell">
</g>
<g id="_x31_4-Magnifying_Glass">
</g>
<g id="_x31_3-Calculator">
</g>
<g id="_x31_2-Eyeglasses">
</g>
<g id="_x31_1-Bus">
</g>
<g id="_x31_0-Trophy">
</g>
<g id="_x39_-Globe">
</g>
<g id="_x38_-Basket_Ball">
</g>
<g id="_x37_-Pen">
</g>
<g id="_x36_-Board">
</g>
<g id="_x35_-Bag">
</g>
<g id="_x34_-Exam">
</g>
<g id="_x33_-Book">
</g>
<g id="_x32_-Ruler">
</g>
<line style="fill:none;stroke:#330D00;stroke-width:20;stroke-miterlimit:10;" x1="226.894" y1="344.406" x2="99.978" y2="471.321"/>
<line style="fill:none;stroke:#330D00;stroke-width:20;stroke-miterlimit:10;" x1="403.348" y1="361.232" x2="530.263" y2="488.147"/>
<line style="fill:none;stroke:#330D00;stroke-width:20;stroke-miterlimit:10;" x1="309.335" y1="392.115" x2="309.335" y2="571.602"/>
<g>
	<path style="fill:#D32436;" d="M309.335,448.782c-87.758,0-159.155-71.393-159.155-159.146
		c0-87.759,71.397-159.156,159.155-159.156c87.758,0,159.154,71.397,159.154,159.156
		C468.489,377.389,397.093,448.782,309.335,448.782z"/>
	<path style="fill:#330D00;" d="M309.335,137.979c40.51,0,78.595,15.775,107.237,44.418c28.643,28.643,44.417,66.728,44.417,107.238
		c0,40.506-15.774,78.588-44.417,107.229c-28.643,28.643-66.728,44.417-107.237,44.417c-40.508,0-78.592-15.774-107.236-44.417
		c-28.644-28.642-44.419-66.724-44.419-107.229c0-40.51,15.775-78.594,44.418-107.238S268.826,137.979,309.335,137.979
		 M309.335,122.979c-92.042,0-166.655,74.613-166.655,166.656c0,92.036,74.615,166.646,166.655,166.646
		c92.045,0,166.654-74.611,166.654-166.646C475.989,197.592,401.38,122.979,309.335,122.979L309.335,122.979z"/>
</g>
<g>
	<path style="fill:#FFEEA9;" d="M75.895,575.448c-44.136,0-80.043-35.905-80.043-80.038c0-44.138,35.907-80.046,80.043-80.046
		c44.135,0,80.041,35.908,80.041,80.046C155.936,539.543,120.029,575.448,75.895,575.448z"/>
	<path style="fill:#330D00;" d="M75.895,422.864c39.999,0,72.541,32.544,72.541,72.546c0,39.998-32.542,72.538-72.541,72.538
		c-40,0-72.543-32.54-72.543-72.538C3.352,455.408,35.894,422.864,75.895,422.864 M75.895,407.864
		c-48.346,0-87.543,39.195-87.543,87.546s39.197,87.538,87.543,87.538c48.348,0,87.541-39.188,87.541-87.538
		S124.242,407.864,75.895,407.864L75.895,407.864z"/>
</g>
<g>
	<path style="fill:#FFEEA9;" d="M309.335,680.022c-44.136,0-80.043-35.904-80.043-80.037c0-44.14,35.907-80.05,80.043-80.05
		c44.134,0,80.04,35.91,80.04,80.05C389.375,644.118,353.469,680.022,309.335,680.022z"/>
	<path style="fill:#330D00;" d="M309.335,527.436c39.999,0,72.54,32.546,72.54,72.55c0,39.997-32.541,72.537-72.54,72.537
		c-40,0-72.543-32.54-72.543-72.537C236.792,559.981,269.334,527.436,309.335,527.436 M309.335,512.436
		c-48.345,0-87.543,39.197-87.543,87.55c0,48.348,39.198,87.537,87.543,87.537c48.35,0,87.54-39.189,87.54-87.537
		C396.875,551.633,357.685,512.436,309.335,512.436L309.335,512.436z"/>
</g>
<g>
	<path style="fill:#FFEEA9;" d="M538.469,575.448c-44.135,0-80.041-35.905-80.041-80.038c0-44.139,35.906-80.049,80.041-80.049
		c44.136,0,80.042,35.91,80.042,80.049C618.511,539.543,582.604,575.448,538.469,575.448z"/>
	<path style="fill:#330D00;" d="M538.469,422.861c40,0,72.542,32.545,72.542,72.549c0,39.998-32.542,72.538-72.542,72.538
		c-39.999,0-72.541-32.54-72.541-72.538C465.928,455.406,498.47,422.861,538.469,422.861 M538.469,407.861
		c-48.343,0-87.541,39.198-87.541,87.549s39.198,87.538,87.541,87.538c48.349,0,87.542-39.188,87.542-87.538
		S586.817,407.861,538.469,407.861L538.469,407.861z"/>
</g>
<path style="fill:#FFEEA9;stroke:#330D00;stroke-width:15;stroke-miterlimit:10;" d="M372.033,296.82
	c0,35.573-28.838,64.412-64.41,64.412c-35.574,0-64.412-28.838-64.412-64.412c0-5.609,28.837-5.072,64.412-5.072
	C343.195,291.748,372.033,291.211,372.033,296.82z"/>
<g>
	<path style="fill:#330D00;" d="M58.368,519.768c1.75,1.749,4.1,2.733,6.561,2.733s4.811-0.984,6.561-2.733l35.429-35.429
		c3.553-3.555,3.827-9.403,0.382-13.068c-3.608-3.881-9.678-3.938-13.339-0.22l-25.151,25.151c-2.133,2.133-5.577,2.133-7.709,0
		l-3.226-3.281c-3.609-3.606-9.514-3.606-13.122,0c-3.609,3.61-3.609,9.514,0,13.122L58.368,519.768z"/>
</g>
<g>
	<path style="fill:#330D00;" d="M291.808,624.341c1.75,1.749,4.101,2.736,6.561,2.736c2.46,0,4.812-0.987,6.562-2.736l35.428-35.429
		c3.554-3.555,3.827-9.406,0.383-13.067c-3.609-3.883-9.679-3.937-13.34-0.22l-25.15,25.15c-2.132,2.133-5.577,2.133-7.709,0
		l-3.226-3.28c-3.609-3.607-9.514-3.607-13.122,0c-3.609,3.609-3.609,9.515,0,13.122L291.808,624.341z"/>
</g>
<circle style="fill:#330D00;" cx="538.469" cy="495.404" r="20.549"/>
<path style="fill:none;stroke:#330D00;stroke-width:20;stroke-miterlimit:10;" d="M169.009,114.944"/>
<path style="fill:none;stroke:#330D00;stroke-width:15;stroke-linecap:round;stroke-linejoin:round;stroke-miterlimit:10;" d="
	M243.211,253.461c0,0,0-26.159,21.793-26.159c21.81,0,21.741,26.159,21.741,26.159"/>
<path style="fill:none;stroke:#330D00;stroke-width:15;stroke-linecap:round;stroke-linejoin:round;stroke-miterlimit:10;" d="
	M328.5,253.461c0,0,0-26.159,21.793-26.159c21.81,0,21.74,26.159,21.74,26.159"/>
</svg>
