<?xml version="1.0" encoding="utf-8"?>
<!-- Generator: Adobe Illustrator 16.0.0, SVG Export Plug-In . SVG Version: 6.00 Build 0)  -->
<!DOCTYPE svg PUBLIC "-//W3C//DTD SVG 1.1//EN" "http://www.w3.org/Graphics/SVG/1.1/DTD/svg11.dtd">
<svg version="1.1" id="Layer_1" xmlns="http://www.w3.org/2000/svg" xmlns:xlink="http://www.w3.org/1999/xlink" x="0px" y="0px"
	 width="640px" height="640px" viewBox="-14 76 640 640" style="enable-background:new -14 76 640 640;" xml:space="preserve">
<g id="_x34_0-Id_Card">
</g>
<g id="_x33_9-Formula">
</g>
<g id="_x33_8-Elbow">
</g>
<g id="_x33_7-Diploma">
</g>
<g id="_x33_6-Laptop">
</g>
<g id="_x33_5-Brush">
</g>
<g id="_x33_4-Baseball">
</g>
<g id="_x33_3-Student">
</g>
<g id="_x33_2-Highlighter">
</g>
<g id="_x33_1-Ruler">
</g>
<g id="_x33_0-Caliper">
</g>
<g id="_x32_9-Ruler_Elbow">
</g>
<g id="_x32_8-Abacus">
</g>
<g id="_x32_7-Id_Card">
</g>
<g id="_x32_6-Eraser">
</g>
<g id="_x32_5-Pencil">
</g>
<g id="_x32_4-Ink">
</g>
<g id="_x32_3-Graduation_Cap">
</g>
<g id="_x32_2-_Sling_Bag">
</g>
<g id="_x32_1-Rugby_Ball">
</g>
<g id="_x31_9-Certificate">
</g>
<g id="_x31_8-Idea">
</g>
<g id="_x31_7-Bookshelf">
</g>
<g id="_x31_6-Formula">
</g>
<g id="_x31_5-Bell">
</g>
<g id="_x31_4-Magnifying_Glass">
</g>
<g id="_x31_3-Calculator">
</g>
<g id="_x31_2-Eyeglasses">
</g>
<g id="_x31_1-Bus">
</g>
<g id="_x31_0-Trophy">
</g>
<g id="_x39_-Globe">
</g>
<g id="_x38_-Basket_Ball">
</g>
<g id="_x37_-Pen">
</g>
<g id="_x36_-Board">
</g>
<g id="_x35_-Bag">
</g>
<g id="_x34_-Exam">
</g>
<g id="_x33_-Book">
</g>
<g id="_x32_-Ruler">
</g>
<line style="fill:none;stroke:#330D00;stroke-width:20;stroke-miterlimit:10;" x1="226.894" y1="344.406" x2="99.978" y2="471.321"/>
<line style="fill:none;stroke:#330D00;stroke-width:20;stroke-miterlimit:10;" x1="403.348" y1="361.232" x2="530.263" y2="488.147"/>
<line style="fill:none;stroke:#330D00;stroke-width:20;stroke-miterlimit:10;" x1="309.335" y1="392.115" x2="309.335" y2="571.602"/>
<g>
	<path style="fill:#D32436;" d="M309.335,445.532c-85.966,0-155.905-69.935-155.905-155.896
		c0-85.967,69.939-155.906,155.905-155.906c85.966,0,155.904,69.939,155.904,155.906
		C465.239,375.597,395.301,445.532,309.335,445.532z"/>
	<path style="fill:#330D00;" d="M309.335,144.479c38.773,0,75.226,15.099,102.641,42.515
		c27.415,27.416,42.514,63.868,42.514,102.642c0,38.77-15.098,75.22-42.513,102.634c-27.416,27.415-63.868,42.513-102.642,42.513
		c-38.772,0-75.224-15.098-102.641-42.513c-27.416-27.415-42.515-63.864-42.515-102.634c0-38.773,15.099-75.226,42.515-102.642
		S270.562,144.479,309.335,144.479 M309.335,122.979c-92.042,0-166.655,74.613-166.655,166.656
		c0,92.036,74.615,166.646,166.655,166.646c92.045,0,166.654-74.611,166.654-166.646
		C475.989,197.592,401.38,122.979,309.335,122.979L309.335,122.979z"/>
</g>
<g>
	<path style="fill:#FFEEA9;" d="M75.895,572.198c-42.344,0-76.793-34.447-76.793-76.788c0-42.346,34.449-76.796,76.793-76.796
		c42.343,0,76.791,34.45,76.791,76.796C152.686,537.751,118.237,572.198,75.895,572.198z"/>
	<path style="fill:#330D00;" d="M75.895,429.364c36.415,0,66.041,29.628,66.041,66.046c0,36.413-29.626,66.038-66.041,66.038
		c-36.416,0-66.043-29.625-66.043-66.038C9.852,458.992,39.479,429.364,75.895,429.364 M75.895,407.864
		c-48.346,0-87.543,39.195-87.543,87.546s39.197,87.538,87.543,87.538c48.348,0,87.541-39.188,87.541-87.538
		S124.242,407.864,75.895,407.864L75.895,407.864z"/>
</g>
<g>
	<path style="fill:#FFEEA9;" d="M309.335,676.772c-42.344,0-76.793-34.446-76.793-76.787c0-42.348,34.449-76.8,76.793-76.8
		c42.342,0,76.79,34.452,76.79,76.8C386.125,642.326,351.677,676.772,309.335,676.772z"/>
	<path style="fill:#330D00;" d="M309.335,533.936c36.415,0,66.04,29.63,66.04,66.05c0,36.413-29.625,66.037-66.04,66.037
		c-36.416,0-66.043-29.624-66.043-66.037C243.292,563.565,272.919,533.936,309.335,533.936 M309.335,512.436
		c-48.345,0-87.543,39.197-87.543,87.55c0,48.348,39.198,87.537,87.543,87.537c48.35,0,87.54-39.189,87.54-87.537
		C396.875,551.633,357.685,512.436,309.335,512.436L309.335,512.436z"/>
</g>
<g>
	<path style="fill:#FFEEA9;" d="M538.469,572.198c-42.343,0-76.791-34.447-76.791-76.788c0-42.347,34.448-76.799,76.791-76.799
		s76.792,34.452,76.792,76.799C615.261,537.751,580.812,572.198,538.469,572.198z"/>
	<path style="fill:#330D00;" d="M538.469,429.361c36.416,0,66.042,29.629,66.042,66.049c0,36.413-29.626,66.038-66.042,66.038
		c-36.415,0-66.041-29.625-66.041-66.038C472.428,458.99,502.054,429.361,538.469,429.361 M538.469,407.861
		c-48.343,0-87.541,39.198-87.541,87.549s39.198,87.538,87.541,87.538c48.349,0,87.542-39.188,87.542-87.538
		S586.817,407.861,538.469,407.861L538.469,407.861z"/>
</g>
<path style="fill:#FFEEA9;stroke:#330D00;stroke-width:21.5;stroke-miterlimit:10;" d="M372.033,296.82
	c0,35.573-28.838,64.412-64.41,64.412c-35.574,0-64.412-28.838-64.412-64.412c0-5.609,28.837-5.072,64.412-5.072
	C343.195,291.748,372.033,291.211,372.033,296.82z"/>
<g>
	<path style="fill:#330D00;" d="M58.368,519.768c1.75,1.749,4.1,2.733,6.561,2.733s4.811-0.984,6.561-2.733l35.429-35.429
		c3.553-3.555,3.827-9.403,0.382-13.068c-3.608-3.881-9.678-3.938-13.339-0.22l-25.151,25.151c-2.133,2.133-5.577,2.133-7.709,0
		l-3.226-3.281c-3.609-3.606-9.514-3.606-13.122,0c-3.609,3.61-3.609,9.514,0,13.122L58.368,519.768z"/>
</g>
<g>
	<path style="fill:#330D00;" d="M291.808,624.341c1.75,1.749,4.101,2.736,6.561,2.736c2.46,0,4.812-0.987,6.562-2.736l35.428-35.429
		c3.554-3.555,3.827-9.406,0.383-13.067c-3.609-3.883-9.679-3.937-13.34-0.22l-25.15,25.15c-2.132,2.133-5.577,2.133-7.709,0
		l-3.226-3.28c-3.609-3.607-9.514-3.607-13.122,0c-3.609,3.609-3.609,9.515,0,13.122L291.808,624.341z"/>
</g>
<circle style="fill:#330D00;" cx="538.469" cy="495.404" r="13.549"/>
<path style="fill:none;stroke:#330D00;stroke-width:20;stroke-miterlimit:10;" d="M169.009,114.944"/>
<path style="fill:none;stroke:#330D00;stroke-width:20;stroke-linecap:round;stroke-linejoin:round;stroke-miterlimit:10;" d="
	M243.211,253.461c0,0,0-26.159,21.793-26.159c21.81,0,21.741,26.159,21.741,26.159"/>
<path style="fill:none;stroke:#330D00;stroke-width:20;stroke-linecap:round;stroke-linejoin:round;stroke-miterlimit:10;" d="
	M328.5,253.461c0,0,0-26.159,21.793-26.159c21.81,0,21.74,26.159,21.74,26.159"/>
</svg>
