<svg xmlns="http://www.w3.org/2000/svg" width="400" height="101.873" viewBox="0 0 400 101.873"><path fill="#e8232a" d="M0 2.497v2.497l15.356 0.061c89.028 0.434 97.556 0.705 98.309 3.142 0.342 1.11 3.65 9.752 6.419 16.772 0.921 2.334 2.237 5.705 2.924 7.49 0.687 1.786 2.297 5.943 3.578 9.239 4.142 10.654 4.629 11.913 6.477 16.729 1.002 2.609 3.179 8.228 4.84 12.484 4.494 11.524 5.242 13.46 6.416 16.605 0.589 1.578 1.111 2.861 1.16 2.85 0.049-0.011 1.767-0.425 3.817-0.919l3.728-0.898 2.145-6.196c1.179-3.409 2.464-7.097 2.854-8.195 2.751-7.731 6.987-19.813 7.531-21.473 0.359-1.099 1.811-5.257 3.226-9.238 1.416-3.983 2.872-8.14 3.236-9.239 0.364-1.098 2.05-5.93 3.748-10.735 1.697-4.808 3.67-10.449 4.382-12.537l1.297-3.799L195.465 6.8c7.713-0.185 37.956-0.555 67.207-0.821 53.663-0.49 101.521-1.179 124.719-1.793L400 3.85V1.925 0H280.87 161.74l0.154 2.122 0.153 2.123 5.047 1.511 5.047 1.512 -3.112 9.475c-1.711 5.211-5.404 16.554-8.206 25.206 -2.802 8.651-5.405 16.629-5.785 17.727 -1.012 2.929-2.584 8.708-2.952 10.862 -0.317 1.851-1.275 2.641-1.275 1.052 0-1.038-1.755-7.141-2.997-10.415 -0.52-1.374-2.453-6.542-4.295-11.485 -1.841-4.944-3.729-10-4.195-11.236 -0.466-1.236-2.019-5.393-3.451-9.239 -1.432-3.845-3.826-10.209-5.318-14.143 -3.263-8.597-3.232-7.81-0.343-8.591 6.613-1.789 7.616-2.383 7.616-4.518V0H70.412 0V2.497M20.225 16.684C10.178 18.716 5.238 24.661 5.25 34.707c0.013 10.444 3.762 14.896 19.184 22.782 11.346 5.801 14.633 9.629 13.755 16.015 -0.926 6.733-9.624 11.884-17.585 10.411 -5.626-1.04-5.594-0.988-9.503-15.75 -0.336-1.27-0.67-1.521-2.195-1.649l-1.799-0.151L6.532 69.51C3.807 84.429 4.058 85.879 9.689 87.798c15.706 5.353 31.663 1.375 37.023-9.228 2.305-4.558 2.23-13.598-0.146-17.708 -2.8-4.844-6.677-7.945-15.854-12.682 -12.078-6.233-15.279-9.304-15.642-14.999 -0.515-8.094 5.515-12.26 15.627-10.798 5.667 0.819 5.49 0.705 6.503 4.234 3.114 10.852 2.987 10.572 4.865 10.736l1.72 0.149 1.079-6.172c0.593-3.395 1.079-7.548 1.079-9.229v-3.057l-2.872-0.849C36.378 16.219 25.942 15.528 20.225 16.684M85.338 17.325c-0.479 1.216-2.375 6.152-5.433 14.136 -0.473 1.236-1.587 4.157-2.475 6.492 -0.888 2.334-2.357 6.154-3.263 8.489 -0.907 2.335-2.572 6.66-3.701 9.613 -1.128 2.951-2.94 7.672-4.026 10.486 -2.852 7.396-5.331 13.865-7.605 19.851 -1.096 2.884-2.336 6.066-2.755 7.073l-0.763 1.83 -4.562 0.271c-2.51 0.148-10.967 0.532-18.795 0.852s-18.165 0.834-22.971 1.145L0.25 98.127 0.095 100l-0.155 1.873h37.233 37.234v-1.907V98.06l-3.371-1.074c-1.854-0.59-4.185-1.213-5.181-1.383l-1.811-0.311 1.891-5.324c1.04-2.929 2.753-7.739 3.808-10.691l1.917-5.367 14.007-0.001 14.008-0.001 0.643 1.872c0.672 1.956 2.887 7.973 5.509 14.965 1.864 4.971 1.872 4.491-0.084 4.875 -5.613 1.104-7.865 2.348-7.865 4.348v1.905h151.062H400v-2.19 -2.19l-13.608-0.305c-7.483-0.168-69.899-0.494-138.702-0.725 -68.8-0.23-125.574-0.589-126.163-0.795 -0.812-0.285-1.699-2.017-3.688-7.198 -1.44-3.752-3.006-7.832-3.48-9.068 -0.475-1.236-2.452-6.405-4.394-11.486 -1.942-5.081-5.02-13.059-6.84-17.728 -1.821-4.669-3.646-9.389-4.056-10.487 -2.137-5.719-2.706-7.219-3.698-9.737 -1.179-2.994-2.842-7.321-4.318-11.235C89.849 15.533 86.378 14.681 85.338 17.325M361.074 17.074c-0.265 0.634-1.075 2.726-1.801 4.649 -1.381 3.652-2.44 6.41-5.424 14.106 -0.983 2.541-2.587 6.698-3.561 9.239 -0.974 2.54-2.637 6.866-3.696 9.613 -1.653 4.291-3.561 9.284-6.864 17.977 -0.418 1.099-1.172 3.009-1.677 4.245 -0.506 1.236-1.182 3.034-1.504 3.995 -0.535 1.597-0.904 1.852-4.271 2.959l-3.688 1.212v1.909 1.91h11.486 11.485v-1.998c0-1.099-0.169-2.007-0.375-2.018 -0.205-0.01-2.076-0.519-4.157-1.131l-3.784-1.113 2.693-7.481c1.481-4.115 2.931-8.102 3.221-8.856l0.525-1.373h11.617 11.617l1.1 2.871c0.606 1.58 1.329 3.434 1.607 4.12 0.601 1.485 3.901 10.555 3.901 10.724 0 0.064-1.798 0.655-3.993 1.313l-3.992 1.197 -0.003 1.872 -0.002 1.873h13.482 13.483v-1.928 -1.928l-3.257-1.069c-1.791-0.588-3.533-1.068-3.872-1.068s-1.712-2.865-3.051-6.367c-1.34-3.502-2.827-7.378-3.306-8.614 -0.478-1.235-2.461-6.404-4.404-11.485 -1.944-5.081-4.682-12.159-6.082-15.73 -1.401-3.57-2.841-7.278-3.201-8.24 -6.597-17.627-5.905-16.206-7.978-16.384C361.868 15.947 361.47 16.121 361.074 17.074M184.27 18.947v1.969l3.62 1.097c1.991 0.602 3.902 1.17 4.245 1.261 0.49 0.131 0.624 6.516 0.624 29.809v29.644l-2.372 0.553c-4.842 1.128-6.117 1.935-6.117 3.87v1.741h25.544 25.547l-0.332-7.116c-0.492-10.614-0.576-10.947-2.703-10.764 -1.723 0.149-1.768 0.216-4.094 5.895l-2.351 5.743 -11.317 0.134 -11.318 0.134V69.173 55.431l7.865 0.005 7.865 0.005 1.963 3.74c1.819 3.465 2.082 3.739 3.562 3.739h1.597l0.357-5.243c0.197-2.884 0.197-7.603 0-10.486l-0.357-5.243h-1.636c-1.534 0-1.754 0.233-3.537 3.745l-1.901 3.745h-7.889 -7.889V36.205 22.971h10.645 10.645l1.402 3.869c0.772 2.129 1.69 4.657 2.041 5.618 0.543 1.49 0.896 1.771 2.392 1.901l1.754 0.152 0.278-3.149c0.154-1.731 0.416-5.676 0.584-8.766l0.307-5.618h-24.512H184.27V18.947M243.695 18.925c0 2.101 1.447 3.051 6.091 3.999l1.649 0.339 0.127 29.691 0.125 29.693 -3.996 1.195 -3.996 1.196v1.925 1.926h10.736 10.737v-1.921V85.05l-3.746-1.188 -3.745-1.188V53.988c0-15.777 0.109-28.577 0.242-28.444s0.914 2.586 1.734 5.451c0.822 2.866 1.818 5.996 2.213 6.958 0.672 1.635 3.443 8.872 6.021 15.73 1.336 3.549 3.387 8.932 6.279 16.479 2.073 5.408 3.021 7.916 5.723 15.133 1.359 3.63 1.375 3.647 3.086 3.496l1.719-0.151 10.029-24.97c5.517-13.731 10.877-27.553 11.912-30.711l1.883-5.743 0.048 27.732 0.047 27.732 -4.12 1.233 -4.119 1.234 -0.154 1.87 -0.156 1.871h13.045 13.044l-0.155-1.873c-0.155-1.865-0.171-1.877-4.024-3.121l-3.867-1.248 -0.003-29.569 -0.002-29.569 2.114-0.568c5.105-1.375 5.876-1.902 5.876-4.019v-1.942h-9.402 -9.403l-2.058 5.118c-7.703 19.175-16.66 42.265-17.832 45.974 -1.629 5.152-1.625 5.153-3.932-1.654 -0.979-2.884-2.336-6.704-3.018-8.489s-1.67-4.369-2.195-5.742c-0.525-1.374-2.02-5.307-3.32-8.739 -1.302-3.434-3.236-8.49-4.3-11.236 -1.063-2.747-2.791-7.241-3.838-9.987l-1.903-4.994 -10.598-0.135 -10.598-0.135V18.925M365.767 44.781c1.02 2.699 2.304 6.143 2.853 7.653s1.318 3.484 1.708 4.387 0.709 1.745 0.709 1.873 -4.27 0.231-9.488 0.231c-5.218 0-9.488-0.097-9.488-0.217 0-0.119 1.708-4.878 3.796-10.575 2.088-5.695 4.114-11.583 4.505-13.079 1.089-4.181 1.301-4.137 2.467 0.504C363.424 37.931 364.747 42.082 365.767 44.781M88.64 43.196c1.238 3.729 4.322 12.236 6.518 17.978 0.735 1.923 1.449 4.001 1.587 4.619l0.25 1.123H85.648c-8.871 0-11.297-0.136-11.113-0.624 2.176-5.788 9.524-26.544 10.387-29.338l1.156-3.746 0.701 3.246C87.164 38.24 88.002 41.273 88.64 43.196"/></svg>